<svg xmlns="http://www.w3.org/2000/svg" viewBox="0 0 183.2 183.2" width="183.2" height="183.2"><g transform="translate(-8.4 -20.6) scale(1)"><defs><linearGradient id="iris-emb-ig" gradientUnits="userSpaceOnUse" x1="9.4" y1="59.4" x2="190.6" y2="165"><stop offset="0" stop-color="#F7E4B3"/><stop offset=".42" stop-color="#DFB872"/><stop offset=".74" stop-color="#B78944"/><stop offset="1" stop-color="#E9CA88"/></linearGradient></defs><g fill="none" stroke="url(#iris-emb-ig)" stroke-width="5" stroke-linecap="round" stroke-linejoin="round">
<path d="M12 150 A88 88 0 0 1 188 150"/><path d="M24 150 A76 76 0 0 1 176 150"/><path d="M36 150 A64 64 0 0 1 164 150"/>
<g transform="translate(93 154) rotate(24) scale(1.12)">
<path d="M0 -8 C-14 -16 -14 -38 0 -58 C12 -40 13 -18 0 -8 Z"/>
<path d="M0 8 V-48"/>
<path d="M0 -24 L-7 -32 M0 -36 L6 -42" stroke-width="3.5"/>
</g>
</g></g></svg>
